<?xml version="1.0" encoding="UTF-8" standalone="no"?><!DOCTYPE svg PUBLIC "-//W3C//DTD SVG 1.1//EN" "http://www.w3.org/Graphics/SVG/1.1/DTD/svg11.dtd"><svg width="100%" height="100%" viewBox="0 0 1000 1000" version="1.1" xmlns="http://www.w3.org/2000/svg" xmlns:xlink="http://www.w3.org/1999/xlink" xml:space="preserve" xmlns:serif="http://www.serif.com/" style="fill-rule:evenodd;clip-rule:evenodd;stroke-linecap:round;stroke-linejoin:round;stroke-miterlimit:1.5;"><rect id="Artboard1" x="0" y="0" width="1000" height="1000" style="fill:#272757;"/><clipPath id="_clip1"><rect id="Artboard11" serif:id="Artboard1" x="0" y="0" width="1000" height="1000"/></clipPath><g clip-path="url(#_clip1)"><path d="M500,373c373.371,0 676.5,303.129 676.5,676.5c0,373.371 -303.129,676.5 -676.5,676.5c-373.371,0 -676.5,-303.129 -676.5,-676.5c0,-373.371 303.129,-676.5 676.5,-676.5Zm0,48.892c346.386,0 627.608,281.222 627.608,627.608c0,346.386 -281.222,627.608 -627.608,627.608c-346.386,0 -627.608,-281.222 -627.608,-627.608c0,-346.386 281.222,-627.608 627.608,-627.608Z" style="fill:#fff;"/><path d="M694.008,834.037c-41.64,35.569 -112.028,58.963 -191.78,58.963c-82.672,0 -155.281,-25.138 -196.237,-62.918c50.514,24.638 120.696,39.918 198.237,39.918c73.303,0 140.029,-13.656 189.78,-35.963Z" style="fill:#eab308;stroke:#eab308;stroke-width:1px;"/><circle cx="305.992" cy="582" r="30" style="fill:#eab308;stroke:#eab308;stroke-width:1px;"/><circle cx="500" cy="209" r="30" style="fill:#eab308;stroke:#eab308;stroke-width:1px;"/><circle cx="694.008" cy="582" r="30" style="fill:#eab308;stroke:#eab308;stroke-width:1px;"/><g><path d="M577.777,257.75c5.43,-10.805 8.473,-22.913 8.473,-35.696c0,-45.555 -38.647,-82.54 -86.25,-82.54c-47.603,0 -86.25,36.985 -86.25,82.54l-28.75,0c0,-60.74 51.53,-110.054 115,-110.054c63.47,0 115,49.313 115,110.054c0,18.439 -4.749,35.825 -13.139,51.098c-0.36,0.655 -0.726,1.306 -1.099,1.953c-2.34,4.058 -4.939,7.96 -7.778,11.686c-15.041,19.744 -36.779,34.524 -62.004,41.271l35.808,-53.801c4.31,-5.042 8.009,-10.58 10.989,-16.511Z" style="fill:#fff;"/><path d="M602,273.245l-99.673,149.755l-23.934,-15.929l99.673,-149.755l23.934,15.929Z" style="fill:#fff;"/></g></g></svg>